<?xml version="1.0" standalone="no"?>
<!DOCTYPE svg PUBLIC "-//W3C//DTD SVG 20010904//EN"
 "http://www.w3.org/TR/2001/REC-SVG-20010904/DTD/svg10.dtd">
<svg version="1.0" xmlns="http://www.w3.org/2000/svg"
 width="609.000000pt" height="177.000000pt" viewBox="0 0 609.000000 177.000000"
 preserveAspectRatio="xMidYMid meet">

<g transform="translate(0.000000,177.000000) scale(0.100000,-0.100000)"
fill="#000000" stroke="none">
<path d="M3894 1395 c-40 -7 -80 -18 -90 -25 -18 -11 -18 -11 1 -5 40 14 131
20 184 12 71 -10 105 -30 140 -77 l28 -40 18 48 c10 26 22 53 28 59 12 17 3
19 -115 32 -112 13 -102 13 -194 -4z"/>
<path d="M3713 1316 c-33 -24 -69 -57 -80 -72 -144 -204 -119 -506 47 -591 65
-32 163 -45 250 -33 136 19 217 73 240 162 12 42 10 120 -4 149 -5 12 3 20 37
33 43 16 106 70 95 82 -4 3 -15 1 -26 -5 -12 -6 -79 -11 -159 -11 -153 0 -198
-9 -259 -51 -64 -44 -64 -59 -1 -42 32 9 88 13 145 11 85 -3 96 -5 113 -27 38
-46 16 -164 -40 -220 -86 -86 -249 -81 -325 10 -68 80 -101 205 -94 356 6 118
34 198 91 255 20 21 35 38 33 38 -2 0 -31 -20 -63 -44z"/>
<path d="M5155 1260 c4 -6 11 -8 16 -5 14 9 11 15 -7 15 -8 0 -12 -5 -9 -10z"/>
<path d="M5571 1244 c-59 -30 -94 -75 -117 -150 -26 -87 -13 -178 31 -214 11
-9 38 -15 74 -14 63 0 120 25 161 69 l25 27 -42 -21 c-23 -11 -54 -21 -68 -21
-32 0 -85 26 -85 43 0 6 54 66 121 133 l121 121 -34 27 c-47 36 -115 36 -187
0z m73 -56 c9 -12 16 -32 16 -45 0 -26 -96 -146 -113 -140 -19 6 -28 65 -17
107 13 47 55 100 80 100 11 0 26 -10 34 -22z"/>
<path d="M1145 1241 c-66 -30 -135 -134 -200 -300 -11 -30 -25 -56 -31 -58 -7
-2 -20 39 -32 101 -24 120 -53 194 -89 228 -21 19 -35 23 -86 22 -132 -2 -272
-61 -329 -138 -42 -58 -61 -135 -56 -221 7 -112 53 -173 104 -140 l24 15 -34
44 c-111 146 -43 350 133 400 75 21 123 20 151 -2 47 -38 34 -238 -27 -396
-58 -152 -141 -233 -251 -243 -39 -4 -54 0 -86 22 -21 14 -41 23 -44 20 -11
-11 29 -112 53 -135 48 -45 130 -25 200 47 55 57 137 229 175 371 19 67 37
119 41 115 4 -5 17 -44 29 -88 42 -150 72 -237 80 -228 5 4 20 49 35 98 15 50
43 124 63 165 l36 75 8 -105 c12 -157 44 -250 115 -338 19 -23 48 -49 64 -58
43 -22 135 -36 181 -29 l39 7 -43 27 c-183 116 -324 449 -263 622 17 47 57 96
90 109 13 6 15 9 5 9 -8 0 -33 -8 -55 -18z"/>
<path d="M1260 1256 c0 -2 7 -7 16 -10 8 -3 12 -2 9 4 -6 10 -25 14 -25 6z"/>
<path d="M4755 1250 c4 -6 11 -8 16 -5 14 9 11 15 -7 15 -8 0 -12 -5 -9 -10z"/>
<path d="M4935 1250 c4 -6 11 -8 16 -5 14 9 11 15 -7 15 -8 0 -12 -5 -9 -10z"/>
<path d="M5423 1253 l-33 -4 0 -77 1 -77 18 47 c10 26 28 63 41 82 12 20 18
35 13 34 -4 0 -23 -3 -40 -5z"/>
<path d="M5212 1203 c-27 -27 -58 -61 -70 -78 l-21 -30 -1 38 c0 49 -25 107
-45 107 -37 0 -113 -62 -157 -128 -15 -22 -16 -21 -22 31 -13 99 -35 106 -104
34 -33 -34 -33 -34 -8 -30 25 5 26 3 25 -38 0 -24 -4 -98 -9 -164 -4 -66 -6
-122 -4 -124 2 -2 21 8 43 22 l39 26 7 90 c7 83 10 94 43 136 35 46 75 66 94
47 6 -6 7 -59 1 -156 -5 -96 -5 -146 2 -146 6 0 24 9 41 19 33 20 44 60 44
157 0 38 6 49 54 101 52 55 56 57 72 41 15 -15 17 -32 14 -120 -5 -150 -4
-158 13 -175 20 -20 57 -11 94 22 l28 25 -33 -7 -34 -6 6 44 c14 116 17 257 5
282 -20 43 -60 36 -117 -20z"/>
<path d="M3521 1231 c-7 -5 -10 -14 -7 -20 11 -17 23 -13 29 9 6 22 0 25 -22
11z"/>
<path d="M4505 1195 c-67 -33 -128 -101 -146 -162 -17 -58 -17 -169 0 -200 27
-52 82 -38 174 47 52 47 55 49 61 27 3 -12 6 -33 6 -47 0 -52 39 -64 85 -28
28 22 28 22 6 30 -15 5 -21 14 -17 25 2 10 8 89 12 176 l6 157 -68 -1 c-52 0
-81 -6 -119 -24z m94 -77 c-1 -117 -9 -149 -48 -175 -68 -46 -121 -19 -121 62
1 84 77 185 140 185 l30 0 -1 -72z"/>
<path d="M4517 1082 c-23 -25 -39 -90 -25 -98 6 -4 19 2 30 13 14 15 19 31 16
63 -3 42 -3 42 -21 22z"/>
<path d="M895 1173 c3 -10 11 -37 18 -60 6 -24 14 -43 17 -43 5 0 60 105 60
115 0 3 -23 5 -51 5 -45 0 -50 -2 -44 -17z"/>
<path d="M1179 1148 c-34 -47 -34 -163 0 -268 l25 -75 7 50 c7 57 29 113 59
155 l21 29 -35 -6 c-29 -4 -37 -1 -52 22 -15 24 -16 33 -5 72 6 25 10 48 7 50
-2 2 -14 -11 -27 -29z"/>
<path d="M3313 1156 c10 -21 13 -22 24 -7 18 24 16 31 -11 31 -22 0 -23 -2
-13 -24z"/>
<path d="M3110 1159 c0 -5 5 -7 10 -4 6 3 10 8 10 11 0 2 -4 4 -10 4 -5 0 -10
-5 -10 -11z"/>
<path d="M3429 1160 c-9 -5 -24 -21 -33 -35 -17 -25 -16 -27 13 -61 24 -27 31
-44 31 -77 0 -39 -31 -127 -45 -127 -3 0 -35 61 -70 135 -66 136 -89 164 -122
146 -29 -15 -120 -115 -98 -106 11 4 34 10 52 13 28 3 34 0 55 -34 26 -43 60
-117 93 -208 l22 -59 -53 -74 c-58 -80 -79 -137 -69 -184 10 -43 40 -59 113
-59 70 0 109 16 141 56 31 39 25 51 -7 16 -53 -57 -113 -49 -150 19 -32 59 21
195 158 409 68 107 75 144 37 201 -24 36 -43 44 -68 29z"/>
<path d="M2890 1149 c0 -5 5 -7 10 -4 6 3 10 8 10 11 0 2 -4 4 -10 4 -5 0 -10
-5 -10 -11z"/>
<path d="M581 1143 c-23 -5 -23 -5 8 -24 18 -11 40 -33 49 -49 25 -43 33 -37
30 23 -3 50 -4 52 -33 53 -16 1 -41 0 -54 -3z"/>
<path d="M3715 1110 c-10 -53 -7 -166 5 -207 5 -16 9 -21 9 -10 1 23 35 90 57
112 16 15 15 18 -15 43 -20 17 -34 41 -39 67 l-9 40 -8 -45z"/>
<path d="M4300 1133 c-19 -8 -64 -21 -100 -28 -61 -12 -63 -13 -22 -14 23 -1
59 6 79 14 19 8 43 15 53 15 10 0 20 7 24 15 3 8 4 15 3 14 -1 0 -18 -7 -37
-16z"/>
<path d="M2666 1125 c4 -8 10 -15 14 -15 4 0 13 7 20 15 11 13 8 15 -13 15
-19 0 -25 -4 -21 -15z"/>
<path d="M2985 1122 c-33 -21 -89 -75 -112 -109 -9 -13 -18 -23 -22 -23 -3 0
-7 28 -8 61 -2 92 -21 96 -99 22 -22 -21 -36 -35 -30 -30 5 4 19 7 29 7 19 0
19 -6 13 -122 -4 -68 -9 -142 -13 -165 -7 -52 7 -56 55 -15 31 26 33 31 39
112 5 83 7 86 50 138 25 28 51 52 58 52 22 0 37 -38 29 -73 l-6 -32 22 20 c36
31 80 96 80 117 0 18 -33 58 -47 58 -5 0 -21 -8 -38 -18z"/>
<path d="M2010 1100 c0 -5 4 -10 9 -10 6 0 13 5 16 10 3 6 -1 10 -9 10 -9 0
-16 -4 -16 -10z"/>
<path d="M2450 1095 c-84 -38 -150 -139 -150 -230 0 -91 50 -153 132 -162 110
-13 222 93 235 222 11 106 -37 173 -128 181 -36 3 -65 -1 -89 -11z m64 -35
c80 -30 92 -259 17 -300 -64 -34 -121 10 -142 107 -18 89 9 170 66 194 27 11
30 11 59 -1z"/>
<path d="M2467 996 c-9 -10 -20 -29 -23 -42 -9 -33 3 -103 22 -132 15 -22 17
-23 34 -7 37 33 37 132 1 176 -16 20 -18 20 -34 5z"/>
<path d="M1795 1090 c4 -6 11 -8 16 -5 14 9 11 15 -7 15 -8 0 -12 -5 -9 -10z"/>
<path d="M5699 1040 c-68 -64 -69 -63 33 -18 17 8 28 22 32 41 3 17 5 32 3 33
-2 2 -32 -24 -68 -56z"/>
<path d="M2099 1067 c-19 -12 -52 -47 -74 -76 l-40 -54 -6 50 c-8 60 -24 93
-47 93 -30 0 -81 -38 -124 -95 l-43 -55 -11 61 c-14 77 -24 87 -61 61 -15 -11
-37 -29 -47 -41 -19 -21 -19 -21 4 -21 l23 0 -7 -122 c-4 -68 -9 -142 -13
-165 -6 -49 0 -52 48 -20 37 25 47 58 48 153 1 43 6 57 38 95 45 52 53 59 75
59 27 0 30 -35 20 -181 -6 -74 -9 -136 -7 -137 2 -2 19 4 39 13 42 20 56 57
56 151 0 59 2 64 46 113 78 87 106 64 93 -79 -12 -133 -11 -148 11 -170 16
-16 24 -18 48 -9 16 6 40 21 53 35 l23 24 -33 -6 c-30 -6 -32 -5 -27 17 3 13
7 83 11 154 4 109 3 134 -10 153 -20 28 -43 28 -86 -1z"/>
<path d="M2252 1023 l0 -68 15 35 c8 19 24 47 34 61 26 36 24 39 -15 39 l-34
0 0 -67z"/>
<path d="M4742 1030 c-1 -36 -5 -76 -8 -90 -5 -19 -4 -22 5 -14 8 7 11 38 8
90 l-3 79 -2 -65z"/>
<path d="M1426 1044 c-63 -23 -106 -62 -133 -121 -47 -102 -40 -225 14 -260
56 -37 179 -7 238 57 l30 32 -42 -21 c-23 -11 -59 -21 -80 -21 -38 0 -83 22
-83 41 0 5 52 63 116 129 128 131 129 136 57 167 -40 16 -67 16 -117 -3z m50
-89 c10 -41 -2 -67 -60 -124 l-54 -54 -11 40 c-11 42 -5 76 23 132 29 56 88
59 102 6z"/>
<path d="M4952 1030 c-7 -11 -12 -51 -12 -89 0 -38 -5 -82 -10 -97 -12 -31 -9
-37 12 -29 12 5 17 32 23 116 4 61 5 112 3 114 -2 2 -9 -5 -16 -15z"/>
<path d="M5174 1039 c-7 -8 -14 -57 -16 -110 -4 -92 -3 -95 17 -92 18 4 20 11
17 76 -5 135 -6 142 -18 126z"/>
<path d="M5382 1000 c0 -19 2 -27 5 -17 2 9 2 25 0 35 -3 9 -5 1 -5 -18z"/>
<path d="M3120 975 c-14 -7 -34 -17 -45 -21 -18 -7 -18 -8 5 -11 54 -8 70 -14
100 -39 l31 -27 -28 57 c-15 31 -30 56 -33 56 -3 0 -16 -7 -30 -15z"/>
<path d="M4263 927 c-20 -9 -23 -18 -23 -66 0 -31 -3 -66 -6 -78 -6 -22 -6
-22 35 -6 25 10 38 20 33 27 -4 6 -9 38 -12 72 -5 59 -6 61 -27 51z"/>
<path d="M2897 913 c-4 -3 -7 -25 -7 -47 l0 -40 22 21 c19 19 20 24 7 39 -8 9
-12 19 -11 21 6 8 -4 13 -11 6z"/>
<path d="M1530 834 c-72 -72 -73 -82 -2 -41 18 11 43 17 57 15 24 -5 25 -3 25
48 0 30 -1 54 -3 54 -1 0 -36 -34 -77 -76z"/>
<path d="M2034 875 c-7 -11 -14 -62 -16 -112 -4 -89 -3 -93 16 -93 20 0 21 5
18 87 -1 49 -4 99 -5 113 -2 24 -3 24 -13 5z"/>
<path d="M3885 883 c-16 -3 -39 -16 -52 -29 -27 -30 -60 -31 -84 -2 -24 27
-24 18 1 -35 12 -24 37 -59 56 -78 33 -32 39 -34 102 -34 55 0 73 4 99 24 42
31 66 78 61 121 l-3 35 -75 1 c-41 1 -88 -1 -105 -3z m100 -38 c52 -51 15
-135 -60 -135 -72 0 -114 91 -65 140 29 29 94 27 125 -5z"/>
<path d="M1814 868 c-5 -7 -12 -51 -15 -98 -3 -47 -9 -93 -13 -102 -6 -14 -4
-18 12 -18 18 0 20 9 27 111 7 110 5 132 -11 107z"/>
<path d="M3428 760 c-70 -130 -86 -180 -69 -216 14 -31 29 -27 58 15 16 24 20
41 16 66 -3 21 -1 41 7 50 14 17 62 20 91 5 24 -13 24 -14 -8 56 -15 33 -29
75 -33 94 -5 35 -6 34 -62 -70z"/>
<path d="M5405 840 c-3 -5 1 -10 10 -10 9 0 13 5 10 10 -3 6 -8 10 -10 10 -2
0 -7 -4 -10 -10z"/>
<path d="M2241 824 c0 -11 3 -14 6 -6 3 7 2 16 -1 19 -3 4 -6 -2 -5 -13z"/>
<path d="M591 803 c-15 -15 -36 -23 -58 -23 -28 0 -33 -3 -33 -24 0 -38 -10
-56 -41 -71 -39 -21 -92 -19 -122 5 -22 18 -26 18 -31 3 -7 -18 44 -69 82 -79
37 -10 90 5 126 36 29 26 114 167 104 174 -1 1 -14 -8 -27 -21z"/>
<path d="M4535 790 c-3 -5 1 -10 9 -10 9 0 16 5 16 10 0 6 -4 10 -9 10 -6 0
-13 -4 -16 -10z"/>
<path d="M732 723 c-12 -37 -20 -68 -19 -70 6 -6 77 21 77 29 0 19 -23 99 -29
103 -4 2 -17 -26 -29 -62z"/>
<path d="M2653 743 l-32 -42 32 6 c41 8 39 5 35 45 l-3 34 -32 -43z"/>
<path d="M3240 766 c0 -22 3 -27 11 -19 8 8 8 16 0 30 -9 16 -10 14 -11 -11z"/>
<path d="M950 722 c-7 -35 -11 -64 -9 -65 2 -1 20 -10 39 -19 l36 -16 -19 62
c-33 106 -32 105 -47 38z"/>
<path d="M2277 693 c-14 -13 -6 -23 19 -23 22 0 25 2 14 15 -14 16 -23 19 -33
8z"/>
<path d="M1580 664 c-25 -29 -96 -64 -151 -72 l-54 -8 38 -19 37 -19 28 26
c31 29 84 58 107 58 9 0 15 9 15 25 0 29 -3 31 -20 9z"/>
</g>
</svg>
